<svg width="1440" height="900" viewBox="0 0 1440 900" fill="none" xmlns="http://www.w3.org/2000/svg">
<g clip-path="url(#clip0_1_641)">
<rect width="1440" height="900" fill="#6FADEF"/>
<ellipse cx="447.5" cy="609.5" rx="775.5" ry="788.5" fill="#005EB7"/>
<circle cx="1339" cy="816" r="50" fill="url(#paint0_linear_1_641)"/>
<circle cx="1339" cy="816" r="50" fill="url(#paint1_linear_1_641)"/>
<ellipse cx="1148" cy="250" rx="141" ry="142" fill="url(#paint2_linear_1_641)"/>
<path d="M810.285 581.837C811.176 581.929 811.897 582.602 812.05 583.485L836.989 727.385C837.133 728.216 836.74 729.048 836.007 729.465L705.817 803.547C705.057 803.98 704.103 803.867 703.463 803.27L598.436 705.192C597.797 704.595 597.619 703.651 597.999 702.863L663.009 567.914C663.375 567.154 664.178 566.705 665.017 566.792L810.285 581.837Z" stroke="#3EBD33" stroke-width="10"/>
<circle cx="1136" cy="82" r="71" fill="url(#paint3_linear_1_641)"/>
</g>
<defs>
<linearGradient id="paint0_linear_1_641" x1="1339" y1="866" x2="1339" y2="766" gradientUnits="userSpaceOnUse">
<stop stop-color="#D73D6B"/>
<stop offset="1" stop-color="#2A2C82"/>
</linearGradient>
<linearGradient id="paint1_linear_1_641" x1="1339" y1="866" x2="1339" y2="766" gradientUnits="userSpaceOnUse">
<stop stop-color="#D73D6B"/>
<stop offset="1" stop-color="#2A2C82"/>
</linearGradient>
<linearGradient id="paint2_linear_1_641" x1="1047" y1="358.5" x2="1167" y2="304.5" gradientUnits="userSpaceOnUse">
<stop stop-color="#41789A"/>
<stop offset="1" stop-color="#8485DD"/>
</linearGradient>
<linearGradient id="paint3_linear_1_641" x1="1153.24" y1="153" x2="1118.76" y2="11" gradientUnits="userSpaceOnUse">
<stop stop-color="#1BE881"/>
<stop offset="0.966346" stop-color="#822A76"/>
</linearGradient>
<clipPath id="clip0_1_641">
<rect width="1440" height="900" fill="white"/>
</clipPath>
</defs>
</svg>
