<svg
            className="w-2 h-2 text-gray-900"
            viewBox="0 0 72 17"
            fill="currentColor"
            xmlns="http://www.w3.org/2000/svg"
    >
<path
        fill-rule="evenodd"
        clip-rule="evenodd"
        d="M8.13814 3.58723C8.53926 3.89696 8.76521 4.33108 8.81598 4.8896H12.4261C12.4159 3.91981 12.1646 3.06679 11.6721 2.33056C11.1795 1.59433 10.4865 1.02311 9.59284 0.616912C8.70428 0.205638 7.65578 0 6.44735 0C5.2643 0 4.21072 0.203099 3.28662 0.609297C2.36252 1.01549 1.63898 1.58163 1.116 2.30771C0.593025 3.03379 0.334074 3.87919 0.339152 4.84391C0.334074 6.02696 0.719962 6.96629 1.49681 7.6619C2.27367 8.35244 3.3374 8.85257 4.688 9.16229L6.31787 9.5431C6.88655 9.67512 7.35367 9.81983 7.71925 9.97723C8.08991 10.1295 8.36409 10.3123 8.5418 10.5256C8.71951 10.7338 8.81091 10.9851 8.81598 11.2796C8.81091 11.5944 8.7119 11.8737 8.51895 12.1174C8.32601 12.3611 8.04929 12.5515 7.68879 12.6886C7.33336 12.8257 6.90178 12.8942 6.39403 12.8942C5.84059 12.8942 5.35315 12.8079 4.93172 12.6353C4.51537 12.4626 4.18787 12.2088 3.94923 11.8737C3.71059 11.5385 3.57604 11.1197 3.54557 10.617H1.34905V11.5218H0C0.111682 12.3437 0.366902 13.05 0.765659 13.6406C1.30387 14.4378 2.05787 15.0318 3.02767 15.4228C3.99747 15.8138 5.13482 16.0093 6.43973 16.0093C7.73956 16.0093 8.84899 15.8214 9.76801 15.4457C10.6921 15.0699 11.4004 14.5292 11.8929 13.8234C12.3854 13.1176 12.6342 12.2722 12.6393 11.2872C12.6342 10.6627 12.5276 10.0991 12.3194 9.59642C12.2886 9.52203 12.2557 9.44891 12.2205 9.37708H11.0003V7.92262C10.6815 7.67814 10.3164 7.45922 9.9051 7.26586C9.31612 6.9866 8.63573 6.76319 7.86396 6.59563L6.52351 6.29098C6.16809 6.21482 5.8482 6.12597 5.56387 6.02442C5.27953 5.92287 5.03581 5.80609 4.83271 5.67407C4.63469 5.53698 4.48237 5.37958 4.37574 5.20187C4.27419 5.02416 4.22849 4.81852 4.23865 4.58495C4.24372 4.30062 4.3275 4.04928 4.48998 3.83095C4.65246 3.60754 4.89618 3.43237 5.22114 3.30543C5.5461 3.1785 5.95229 3.11503 6.43973 3.11503C7.17596 3.11503 7.7421 3.27243 8.13814 3.58723ZM14.5434 0.213254V15.8112H18.3134V10.4495H17.4345V8.30473H19.5792V9.5431H24.4597V15.8112H28.2221L27.0857 15.8112V13.6665H28.2221V0.213254H24.4597V6.47377H18.3134V0.213254H14.5434ZM33.9609 15.8112H29.9091L35.1718 0.213254H40.1909L42.5592 7.23236H42.0988V9.37708H43.2828L45.4537 15.8112H41.4019L40.3737 12.5363H34.987L34.6329 13.6665H33.5199V15.8112L33.9609 15.8112ZM37.7385 4.14322L39.4746 9.67258H35.8842L37.6166 4.14322H37.7385ZM47.1331 0.213254V13.6665H48.5329V15.8112L47.1331 15.8112H50.9031V10.9673H53.4622C54.6554 10.9673 55.6861 10.7465 56.5543 10.3047C57.4226 9.86298 58.0903 9.24099 58.5574 8.43875C59.0296 7.63144 59.2657 6.68956 59.2657 5.61314C59.2657 4.60652 59.0618 3.71644 58.6538 2.94291H57.1118V1.20741C56.9498 1.09656 56.7793 0.993656 56.6 0.898713C55.7521 0.44174 54.7442 0.213254 53.5764 0.213254H47.1331ZM50.9031 7.99701H52.7615C53.3301 7.99701 53.8049 7.898 54.1857 7.69998C54.5716 7.50196 54.8635 7.22524 55.0616 6.86981C55.2596 6.50931 55.3586 6.09042 55.3586 5.61314C55.3586 5.13078 55.2596 4.71443 55.0616 4.36408C54.8635 4.00866 54.5716 3.73448 54.1857 3.54154C53.7998 3.34859 53.3251 3.25212 52.7615 3.25212H50.9031V7.99701ZM61.1241 13.6665V0.213254H72V3.27497H64.8941V6.47377H71.444V8.30473H69.9802V9.5431H64.8941V12.7495H72V15.8112H61.1241L62.4736 15.8112V13.6665H61.1241Z">

</path>
    </svg>
